<svg version="1.1" xmlns="http://www.w3.org/2000/svg" viewBox="0 0 393.85261447040267 430.9895801242519" width="393.85261447040267" height="430.9895801242519" filter="invert(93%) hue-rotate(180deg)">
  <!-- svg-source:excalidraw -->
  
  <defs>
    <style class="style-fonts">
      @font-face {
        font-family: "Virgil";
        src: url("https://excalidraw.com/Virgil.woff2");
      }
      @font-face {
        font-family: "Cascadia";
        src: url("https://excalidraw.com/Cascadia.woff2");
      }
    </style>
  </defs>
  <rect x="0" y="0" width="393.85261447040267" height="430.9895801242519" fill="#ffffff"></rect><g stroke-linecap="round" transform="translate(10 13.437725190532547) rotate(0 78.5 93)"><path d="M-1.09 1.74 C33.61 -0.16, 68.12 0.75, 158.74 -1.8 M-0.97 -0.64 C46.98 0.47, 95.49 1.2, 157.21 -0.75 M158.88 0.44 C157.46 38.44, 159.91 79.05, 157.32 184.94 M156.82 0.08 C157.38 66.31, 158.49 130.87, 157.92 185.54 M158.55 186.89 C116.3 186.92, 76.75 187.76, 1.63 187.3 M157.28 186.43 C105.2 186.81, 51.63 186.85, 0.08 185.52 M0.25 187.24 C-2.16 132.68, 1.54 74.95, 0.61 1.96 M-0.05 185.48 C0.33 123.19, 0.57 59.29, -0.49 0.12" stroke="#000000" stroke-width="1" fill="none"></path></g><g transform="translate(47 41.43772519053255) rotate(0 41.5 65)"><text x="41.5" y="19" font-family="Virgil, Segoe UI Emoji" font-size="20px" fill="#000000" text-anchor="middle" style="white-space: pre;" direction="ltr">Cofnig 1</text><text x="41.5" y="45" font-family="Virgil, Segoe UI Emoji" font-size="20px" fill="#000000" text-anchor="middle" style="white-space: pre;" direction="ltr">&amp;</text><text x="41.5" y="71" font-family="Virgil, Segoe UI Emoji" font-size="20px" fill="#000000" text-anchor="middle" style="white-space: pre;" direction="ltr">Config 2</text><text x="41.5" y="97" font-family="Virgil, Segoe UI Emoji" font-size="20px" fill="#000000" text-anchor="middle" style="white-space: pre;" direction="ltr">&amp;</text><text x="41.5" y="123" font-family="Virgil, Segoe UI Emoji" font-size="20px" fill="#000000" text-anchor="middle" style="white-space: pre;" direction="ltr">Config 3</text></g><g stroke-linecap="round" transform="translate(13.613935108281964 234.98958012425192) rotate(0 78 93)"><path d="M-1.13 -0.07 C35.46 -0.89, 73.21 -0.77, 156.6 0.17 M0.77 -0.59 C53.8 -1.64, 108.52 -0.97, 155.68 0.33 M155.66 0.86 C155.39 37.86, 155.21 74.11, 154.3 187.09 M156.37 -0.98 C156.65 70.56, 156.35 139.84, 155.72 185.68 M154.9 184.34 C120.45 186.48, 87.49 186.46, 0.77 184.93 M155.63 185.23 C97.89 185.92, 39.48 186.89, 0.7 185.85 M-1.98 184.68 C-0.79 116.53, 2.07 44.18, 1.68 -1.85 M0.3 185.2 C0.1 114.27, 0.08 41.16, -0.12 -0.45" stroke="#000000" stroke-width="1" fill="none"></path></g><g transform="translate(29.613935108281964 262.9895801242519) rotate(0 62 65)"><text x="62" y="19" font-family="Virgil, Segoe UI Emoji" font-size="20px" fill="#000000" text-anchor="middle" style="white-space: pre;" direction="ltr">Cofnig 1</text><text x="62" y="45" font-family="Virgil, Segoe UI Emoji" font-size="20px" fill="#000000" text-anchor="middle" style="white-space: pre;" direction="ltr">&amp;</text><text x="62" y="71" font-family="Virgil, Segoe UI Emoji" font-size="20px" fill="#000000" text-anchor="middle" style="white-space: pre;" direction="ltr">not Config 2</text><text x="62" y="97" font-family="Virgil, Segoe UI Emoji" font-size="20px" fill="#000000" text-anchor="middle" style="white-space: pre;" direction="ltr">&amp;</text><text x="62" y="123" font-family="Virgil, Segoe UI Emoji" font-size="20px" fill="#000000" text-anchor="middle" style="white-space: pre;" direction="ltr">Config 3</text></g><g stroke-linecap="round"><g transform="translate(185.32398471715442 69.30075953668438) rotate(0 31.351664556189462 -0.01171096129178295)"><path d="M1.77 -1.37 C19.27 1.62, 39.96 0.29, 62.14 0.28 M0.55 0.51 C23.79 0.37, 49.21 0.52, 62.15 1.35" stroke="#000000" stroke-width="1" fill="none"></path></g><g transform="translate(185.32398471715442 69.30075953668438) rotate(0 31.351664556189462 -0.01171096129178295)"><path d="M35.34 9.12 C42.22 9.06, 52.3 4.62, 61.55 0.77 M34.13 11.01 C43.91 6.85, 55.87 3.06, 61.56 1.84" stroke="#000000" stroke-width="1" fill="none"></path></g><g transform="translate(185.32398471715442 69.30075953668438) rotate(0 31.351664556189462 -0.01171096129178295)"><path d="M36.15 -11.38 C42.82 -5.07, 52.66 -3.15, 61.55 0.77 M34.94 -9.49 C44.39 -5.58, 56.04 -1.29, 61.56 1.84" stroke="#000000" stroke-width="1" fill="none"></path></g></g><mask></mask><g stroke-linecap="round" transform="translate(254.07848852780313 10) rotate(0 62.738484727216985 57)"><path d="M28.5 0 M28.5 0 C49.69 -1.43, 73.74 -0.13, 96.98 0 M28.5 0 C47.35 0.64, 64.8 1.16, 96.98 0 M96.98 0 C115.98 -1.13, 127.08 8.41, 125.48 28.5 M96.98 0 C114.3 0.16, 124.76 9.17, 125.48 28.5 M125.48 28.5 C123.71 45.27, 125.23 60.69, 125.48 85.5 M125.48 28.5 C126 48.04, 125.1 69.22, 125.48 85.5 M125.48 85.5 C126.25 105.7, 116.54 112.83, 96.98 114 M125.48 85.5 C127.26 105.54, 117.11 112.11, 96.98 114 M96.98 114 C71.4 115.23, 44.07 114.44, 28.5 114 M96.98 114 C72.78 112.44, 49.02 113.5, 28.5 114 M28.5 114 C9.93 114.72, -1.41 105.26, 0 85.5 M28.5 114 C7.34 114.38, -1 105.65, 0 85.5 M0 85.5 C-1.54 67.89, 0.54 49.32, 0 28.5 M0 85.5 C1.32 71.64, 0.62 56.69, 0 28.5 M0 28.5 C0.77 9.66, 10.67 0.46, 28.5 0 M0 28.5 C-0.59 7.4, 8.19 0.33, 28.5 0" stroke="#000000" stroke-width="1" fill="none"></path></g><g transform="translate(274.3169732550201 15) rotate(0 42.5 52)"><text x="42.5" y="19" font-family="Virgil, Segoe UI Emoji" font-size="20px" fill="#000000" text-anchor="middle" style="white-space: pre;" direction="ltr">string 1,</text><text x="42.5" y="45" font-family="Virgil, Segoe UI Emoji" font-size="20px" fill="#000000" text-anchor="middle" style="white-space: pre;" direction="ltr">string 2,</text><text x="42.5" y="71" font-family="Virgil, Segoe UI Emoji" font-size="20px" fill="#000000" text-anchor="middle" style="white-space: pre;" direction="ltr">string 3,</text><text x="42.5" y="97" font-family="Virgil, Segoe UI Emoji" font-size="20px" fill="#000000" text-anchor="middle" style="white-space: pre;" direction="ltr">string 4</text></g><g stroke-linecap="round" transform="translate(258.3756450159687 266.69242363608464) rotate(0 62.738484727216985 57)"><path d="M28.5 0 M28.5 0 C44.49 0.34, 56.48 1.66, 96.98 0 M28.5 0 C54.39 -0.53, 80.07 0.57, 96.98 0 M96.98 0 C115.66 -1.23, 124.45 11.32, 125.48 28.5 M96.98 0 C114.62 -1.87, 126.48 11.13, 125.48 28.5 M125.48 28.5 C125.07 40.83, 125.2 54.44, 125.48 85.5 M125.48 28.5 C125.97 39.45, 125.05 50.99, 125.48 85.5 M125.48 85.5 C124.37 103.06, 114.9 113.77, 96.98 114 M125.48 85.5 C125.18 105.16, 116.78 113.21, 96.98 114 M96.98 114 C79.9 114.91, 59.65 113.59, 28.5 114 M96.98 114 C82.63 112.76, 69.58 113.31, 28.5 114 M28.5 114 C9.85 112.87, -1.91 105.24, 0 85.5 M28.5 114 C8.74 114.2, 2.23 105.71, 0 85.5 M0 85.5 C-1.26 74.67, -1.74 59.07, 0 28.5 M0 85.5 C-1.22 73.86, 0.08 61.41, 0 28.5 M0 28.5 C1.01 8.51, 8.84 -1.07, 28.5 0 M0 28.5 C1.53 7.55, 7.31 0.86, 28.5 0" stroke="#000000" stroke-width="1" fill="none"></path></g><g transform="translate(279.11412974318574 284.69242363608464) rotate(0 42 39)"><text x="42" y="19" font-family="Virgil, Segoe UI Emoji" font-size="20px" fill="#000000" text-anchor="middle" style="white-space: pre;" direction="ltr">string 1,</text><text x="42" y="45" font-family="Virgil, Segoe UI Emoji" font-size="20px" fill="#000000" text-anchor="middle" style="white-space: pre;" direction="ltr">string 3,</text><text x="42" y="71" font-family="Virgil, Segoe UI Emoji" font-size="20px" fill="#000000" text-anchor="middle" style="white-space: pre;" direction="ltr">string 4</text></g><g stroke-linecap="round"><g transform="translate(191.3400038005861 323.6924236360851) rotate(0 25.436450185784594 0.28619323155135135)"><path d="M0.13 -0.68 C8.88 -0.66, 43.26 -1.07, 52.14 -1.02 M-1.27 1.58 C7.34 1.81, 41.97 0.11, 51.04 -0.02" stroke="#000000" stroke-width="1" fill="none"></path></g><g transform="translate(191.3400038005861 323.6924236360851) rotate(0 25.436450185784594 0.28619323155135135)"><path d="M25.58 9.27 C31.62 8.76, 39.24 4.85, 49.91 -1.93 M27.68 10.27 C34.12 6.29, 42.64 2.47, 51.81 -0.93" stroke="#000000" stroke-width="1" fill="none"></path></g><g transform="translate(191.3400038005861 323.6924236360851) rotate(0 25.436450185784594 0.28619323155135135)"><path d="M25 -8.65 C31.02 -4.36, 38.8 -3.48, 49.91 -1.93 M27.1 -7.65 C33.67 -5.58, 42.39 -3.36, 51.81 -0.93" stroke="#000000" stroke-width="1" fill="none"></path></g></g><mask></mask></svg>