<svg version="1.1" xmlns="http://www.w3.org/2000/svg" viewBox="0 0 1037.7385426571286 298.45574043312763" width="1037.7385426571286" height="298.45574043312763" filter="invert(93%) hue-rotate(180deg)">
  <!-- svg-source:excalidraw -->
  
  <defs>
    <style class="style-fonts">
      @font-face {
        font-family: "Virgil";
        src: url("https://excalidraw.com/Virgil.woff2");
      }
      @font-face {
        font-family: "Cascadia";
        src: url("https://excalidraw.com/Cascadia.woff2");
      }
    </style>
  </defs>
  <rect x="0" y="0" width="1037.7385426571286" height="298.45574043312763" fill="#ffffff"></rect><g stroke-linecap="round" transform="translate(253.21905723017005 130.32038166863504) rotate(0 45 19.5)"><path d="M0.91 -1.32 C28.95 0, 55.83 0.85, 88.18 -1.57 M-0.06 0.09 C34.22 -0.15, 69.93 -0.41, 90.48 0.14 M90.81 1.64 C89.84 7.4, 89.57 17.71, 88.93 40.54 M90.53 -0.16 C90.9 11.66, 90.56 21.28, 90.04 38.79 M90.6 40.18 C61.41 40.84, 34.05 37.42, -0.54 38.54 M90.94 38.24 C71.1 38.95, 54.03 40.11, -0.53 38.19 M-1.05 37.92 C1.56 28.46, 1.03 20.05, -0.82 -1.52 M-0.01 38.65 C-0.19 24.75, -0.31 13.13, 0.85 -0.34" stroke="#000000" stroke-width="1" fill="none"></path></g><g transform="translate(269.71905723017005 136.82038166863504) rotate(0 28.5 13)"><text x="28.5" y="19" font-family="Virgil, Segoe UI Emoji" font-size="20px" fill="#000000" text-anchor="middle" style="white-space: pre;" direction="ltr">config</text></g><g stroke-linecap="round" transform="translate(195.37933089946173 207.66919845561551) rotate(0 105.71004960887244 40.39327098875606)"><path d="M20.2 0 M20.2 0 C84.65 0.03, 149.76 0.22, 191.22 0 M20.2 0 C67.34 -1.3, 113.68 0.1, 191.22 0 M191.22 0 C206.62 -1.83, 211.71 5.65, 211.42 20.2 M191.22 0 C205.1 -0.6, 213.47 8.76, 211.42 20.2 M211.42 20.2 C212.36 32.88, 212.14 46.36, 211.42 60.59 M211.42 20.2 C211.79 35.88, 210.11 49.64, 211.42 60.59 M211.42 60.59 C211.47 74, 202.85 81.65, 191.22 80.79 M211.42 60.59 C211.21 72.98, 204.54 82.27, 191.22 80.79 M191.22 80.79 C157.37 78.08, 121.18 80.13, 20.2 80.79 M191.22 80.79 C148.09 80.92, 106.94 80.69, 20.2 80.79 M20.2 80.79 C4.92 78.87, -1.69 72.11, 0 60.59 M20.2 80.79 C8.41 81.35, 0.63 73, 0 60.59 M0 60.59 C1.37 47.4, -1.33 38.06, 0 20.2 M0 60.59 C-0.13 47.08, 0.86 32.69, 0 20.2 M0 20.2 C0.64 6.54, 6.74 0.53, 20.2 0 M0 20.2 C0.55 5.15, 8.85 -1.19, 20.2 0" stroke="#000000" stroke-width="1" fill="none"></path></g><g transform="translate(239.58938050833422 234.8124694443718) rotate(0 61.5 13)"><text x="61.5" y="19" font-family="Virgil, Segoe UI Emoji" font-size="20px" fill="#000000" text-anchor="middle" style="white-space: pre;" direction="ltr">preprocessor</text></g><g stroke-linecap="round"><g transform="translate(297.78520317475795 177.58910303845641) rotate(0 -0.12869521454686605 11.545958706796227)"><path d="M-1.46 -0.58 C0.35 3.31, 2.22 10.67, 0.56 21.86 M0.38 0.7 C-0.56 7.76, 1.18 13.65, 0.46 23.67" stroke="#000000" stroke-width="1" fill="none"></path></g><g transform="translate(297.78520317475795 177.58910303845641) rotate(0 -0.12869521454686605 11.545958706796227)"><path d="M-4.19 12.36 C-2.43 14.08, -0.63 17.8, 0.22 22.89 M-3.12 13.11 C-2.67 16.42, -0.67 19.08, 0.17 23.95" stroke="#000000" stroke-width="1" fill="none"></path></g><g transform="translate(297.78520317475795 177.58910303845641) rotate(0 -0.12869521454686605 11.545958706796227)"><path d="M3.75 12.49 C3.77 14.16, 3.82 17.86, 0.22 22.89 M4.82 13.23 C2.86 16.57, 2.44 19.19, 0.17 23.95" stroke="#000000" stroke-width="1" fill="none"></path></g></g><mask></mask><g stroke-linecap="round" transform="translate(10 63.14777479940494) rotate(0 71 75.5)"><path d="M1.25 -1.29 C38 0.04, 80.66 -0.76, 142.76 -1.69 M0.92 0.52 C48.06 0.31, 96.13 1.27, 141.57 -0.13 M140.52 -0.23 C142.39 56.01, 143.64 109.14, 141.12 152.21 M141.76 -0.85 C140.61 53.82, 140.89 106.74, 142.93 150.06 M143.94 149.27 C110.38 151.45, 76.74 147.89, 1.09 150.62 M142.97 151.42 C89.9 151.62, 37.5 150.88, -0.69 151.81 M-0.71 149.49 C3.27 104.66, -0.39 56.97, -0.17 0.79 M-0.69 150.81 C-0.63 115.1, -0.69 79.93, -0.53 0.72" stroke="#000000" stroke-width="1" fill="none"></path></g><g transform="translate(26 99.64777479940494) rotate(0 55 39)"><text x="55" y="19" font-family="Virgil, Segoe UI Emoji" font-size="20px" fill="#000000" text-anchor="middle" style="white-space: pre;" direction="ltr">source_1.c</text><text x="55" y="45" font-family="Virgil, Segoe UI Emoji" font-size="20px" fill="#000000" text-anchor="middle" style="white-space: pre;" direction="ltr">source_2.c</text><text x="55" y="71" font-family="Virgil, Segoe UI Emoji" font-size="20px" fill="#000000" text-anchor="middle" style="white-space: pre;" direction="ltr">...</text></g><g stroke-linecap="round"><g transform="translate(65.87496516968048 218.25109539703362) rotate(0 61.473156287705336 16.295869861816982)"><path d="M-1.81 0.21 C33.74 9.58, 67.79 19.07, 124.75 32.17 M0.53 0.6 C29.39 8.36, 60.14 17.11, 123.07 32.38" stroke="#000000" stroke-width="1" fill="none"></path></g><g transform="translate(65.87496516968048 218.25109539703362) rotate(0 61.473156287705336 16.295869861816982)"><path d="M91.43 35.74 C101.12 35.82, 109.65 35.48, 124.33 31.64 M93.76 36.13 C99.79 34.44, 107.79 34.43, 122.65 31.85" stroke="#000000" stroke-width="1" fill="none"></path></g><g transform="translate(65.87496516968048 218.25109539703362) rotate(0 61.473156287705336 16.295869861816982)"><path d="M96.38 15.83 C104.91 21.35, 112.1 26.44, 124.33 31.64 M98.72 16.22 C103.59 19.33, 110.38 24.15, 122.65 31.85" stroke="#000000" stroke-width="1" fill="none"></path></g></g><mask></mask><g stroke-linecap="round" transform="translate(473.9730449036697 224.92002865612858) rotate(0 70.5 31)"><path d="M0.9 1.88 C34.04 -0.54, 65.71 1.87, 141.2 -1.57 M-0.41 -0.63 C38.31 -1.92, 76.76 0.01, 140.76 0.09 M141.43 1.14 C141.58 21.28, 141.88 44.13, 142.75 63.2 M140.63 0.47 C141.65 15.85, 141.71 31.2, 141.4 61.52 M139.7 60.25 C107.33 63.11, 70.58 61.98, -0.4 60.11 M141.78 62.43 C93.33 63.36, 46.79 63.77, 0.33 61.01 M-0.51 62.38 C0.15 42.28, 0.21 26.08, 0.5 -1.54 M0.79 61.43 C-0.69 41.8, -0.67 22.43, -0.61 -0.22" stroke="#000000" stroke-width="1" fill="none"></path></g><g transform="translate(481.9730449036697 229.92002865612858) rotate(0 62.5 26)"><text x="62.5" y="19" font-family="Virgil, Segoe UI Emoji" font-size="20px" fill="#000000" text-anchor="middle" style="white-space: pre;" direction="ltr">preprocessed</text><text x="62.5" y="45" font-family="Virgil, Segoe UI Emoji" font-size="20px" fill="#000000" text-anchor="middle" style="white-space: pre;" direction="ltr">source code</text></g><g stroke-linecap="round" transform="translate(197.4419660137814 10) rotate(0 105.71004960887247 40.39327098875606)"><path d="M20.2 0 M20.2 0 C76.5 0.33, 136.49 1.96, 191.22 0 M20.2 0 C60.53 -1.3, 99.1 -0.03, 191.22 0 M191.22 0 C204 -0.78, 212.42 5.19, 211.42 20.2 M191.22 0 C203.44 -0.85, 213.49 8.6, 211.42 20.2 M211.42 20.2 C210.93 33.15, 212.55 43.81, 211.42 60.59 M211.42 20.2 C210.64 35.88, 210.11 50.64, 211.42 60.59 M211.42 60.59 C212.66 72.22, 203.01 79.05, 191.22 80.79 M211.42 60.59 C211.41 73.98, 205.97 79.76, 191.22 80.79 M191.22 80.79 C157.76 79.19, 120.47 82.75, 20.2 80.79 M191.22 80.79 C142.85 80.25, 93.09 80.36, 20.2 80.79 M20.2 80.79 C7.83 80.53, 1.86 73.32, 0 60.59 M20.2 80.79 C7.71 78.98, 2.13 73.22, 0 60.59 M0 60.59 C-1.51 47.24, -1.66 35.61, 0 20.2 M0 60.59 C-0.99 47.52, 0.43 35.7, 0 20.2 M0 20.2 C0.72 4.96, 6.99 0.67, 20.2 0 M0 20.2 C2.19 7.83, 5.78 -0.7, 20.2 0" stroke="#000000" stroke-width="1" fill="none"></path></g><g transform="translate(265.65201562265383 37.14327098875583) rotate(0 37.5 13)"><text x="37.5" y="19" font-family="Virgil, Segoe UI Emoji" font-size="20px" fill="#000000" text-anchor="middle" style="white-space: pre;" direction="ltr">compiler</text></g><g stroke-linecap="round"><g transform="translate(65.94897747591565 55.549858774555105) rotate(0 61.64567097590759 -11.636459576176094)"><path d="M-0.79 1.35 C26.6 -4.84, 52.29 -8.46, 123.01 -24.31 M0.82 -0.73 C32.11 -6.25, 63.02 -11.05, 124.08 -24.63" stroke="#000000" stroke-width="1" fill="none"></path></g><g transform="translate(65.94897747591565 55.549858774555105) rotate(0 61.64567097590759 -11.636459576176094)"><path d="M97.84 -7.39 C104.85 -12.05, 110.23 -13.98, 123.33 -24.87 M99.45 -9.47 C105.99 -13.47, 112.17 -16.21, 124.4 -25.19" stroke="#000000" stroke-width="1" fill="none"></path></g><g transform="translate(65.94897747591565 55.549858774555105) rotate(0 61.64567097590759 -11.636459576176094)"><path d="M93.59 -27.46 C101.31 -27.97, 107.57 -25.76, 123.33 -24.87 M95.19 -29.54 C102.75 -28.47, 110 -26.16, 124.4 -25.19" stroke="#000000" stroke-width="1" fill="none"></path></g></g><mask></mask><g stroke-linecap="round"><g transform="translate(299.80451619899304 123.4449312875704) rotate(0 -0.8486460844235353 -13.578322004909069)"><path d="M-1.88 -0.57 C1.58 -8.93, 0.04 -17.19, -1.22 -24.96 M-0.87 -0.28 C-0.46 -8.37, 0.02 -17.48, -1.93 -26.88" stroke="#000000" stroke-width="1" fill="none"></path></g><g transform="translate(299.80451619899304 123.4449312875704) rotate(0 -0.8486460844235353 -13.578322004909069)"><path d="M3.06 -15.48 C3.53 -19.01, 0.66 -22.52, -2.02 -25.76 M3.74 -15.29 C2.24 -18.8, 0.83 -23.01, -2.5 -27.03" stroke="#000000" stroke-width="1" fill="none"></path></g><g transform="translate(299.80451619899304 123.4449312875704) rotate(0 -0.8486460844235353 -13.578322004909069)"><path d="M-5.97 -14.22 C-2.49 -18.25, -2.36 -22.19, -2.02 -25.76 M-5.29 -14.02 C-3.96 -17.95, -2.54 -22.55, -2.5 -27.03" stroke="#000000" stroke-width="1" fill="none"></path></g></g><mask></mask><g stroke-linecap="round"><g transform="translate(417.0266625590408 254.87984080357) rotate(0 25.793743424203115 -0.5511885669661751)"><path d="M0.3 -1.85 C18.9 0.04, 34.69 1.38, 51.5 0.08 M-0.95 0.47 C20.15 0.13, 39.19 0.99, 52.54 0.69" stroke="#000000" stroke-width="1" fill="none"></path></g><g transform="translate(417.0266625590408 254.87984080357) rotate(0 25.793743424203115 -0.5511885669661751)"><path d="M28.52 7.73 C38.06 6.31, 44.76 4.45, 52.26 0.01 M27.27 10.06 C37.89 6.06, 46.54 3.27, 53.29 0.62" stroke="#000000" stroke-width="1" fill="none"></path></g><g transform="translate(417.0266625590408 254.87984080357) rotate(0 25.793743424203115 -0.5511885669661751)"><path d="M28.49 -9.99 C37.98 -5.54, 44.69 -1.53, 52.26 0.01 M27.24 -7.66 C38 -4.95, 46.66 -1.03, 53.29 0.62" stroke="#000000" stroke-width="1" fill="none"></path></g></g><mask></mask><g stroke-linecap="round"><g transform="translate(413.5889373685084 47.75213051694436) rotate(0 20.413405841700666 -0.13170685206750932)"><path d="M1.85 0.03 C7.64 -1.71, 17.74 -0.15, 40.95 0.5 M-0.94 -0.03 C11.63 -0.65, 21.87 0.05, 41.77 0.47" stroke="#000000" stroke-width="1" fill="none"></path></g><g transform="translate(413.5889373685084 47.75213051694436) rotate(0 20.413405841700666 -0.13170685206750932)"><path d="M23.65 7.17 C24.53 4.1, 29.74 4.14, 40.6 0.76 M20.86 7.12 C27.75 4.79, 32.34 3.73, 41.42 0.73" stroke="#000000" stroke-width="1" fill="none"></path></g><g transform="translate(413.5889373685084 47.75213051694436) rotate(0 20.413405841700666 -0.13170685206750932)"><path d="M24.03 -7.22 C24.86 -7.12, 29.99 -3.89, 40.6 0.76 M21.24 -7.28 C28.11 -5.94, 32.6 -3.32, 41.42 0.73" stroke="#000000" stroke-width="1" fill="none"></path></g></g><mask></mask><g stroke-linecap="round" transform="translate(459.9715938466114 15.096114500591284) rotate(0 70.5 31)"><path d="M1.53 0.85 C33.05 1.76, 67.94 0.75, 141.11 1 M0.04 0.28 C45.18 1, 92.77 -0.74, 140.95 -0.94 M140.5 -1.98 C140.14 16.42, 142.33 38.29, 142.51 61.56 M140.78 0.22 C140.08 16.1, 141.4 32.61, 141.66 62.73 M139.05 60.14 C98.16 63.59, 54.89 59.82, 0.84 61.02 M141.13 62.65 C102.42 61.06, 65.05 62.04, -0.66 62.24 M-1.52 63.75 C-0.96 40.63, -0.74 17.51, -1.76 1.4 M0.75 61.28 C-0.38 39.32, 0.84 16.91, 0.86 0.15" stroke="#000000" stroke-width="1" fill="none"></path></g><g transform="translate(501.9715938466114 32.846114500591284) rotate(0 28.5 13)"><text x="28.5" y="19" font-family="Virgil, Segoe UI Emoji" font-size="20px" fill="#000000" text-anchor="middle" style="white-space: pre;" direction="ltr">kernel</text></g><g stroke-linecap="round" transform="translate(663.8553312392698 13.437725190532547) rotate(0 73.05166029881428 31.798958012425146)"><path d="M1.71 -0.16 C49.02 -0.21, 95.04 0.11, 147.35 0.39 M0.53 0.84 C51.64 -1.04, 101.26 -1.49, 146.35 0.99 M146.18 0.36 C147.11 13.68, 143.92 28.01, 145.16 61.9 M145.18 -0.48 C146.68 18.49, 147.07 34.98, 146.49 64.34 M146.85 63.84 C106.24 63.4, 67.69 64.17, 1.15 63.05 M146.58 63.57 C96.1 64.4, 46.64 63.59, -0.98 63.17 M1.49 63.21 C1.7 47.46, 0.8 34.01, -1.25 0.83 M-1 64.39 C-0.87 40.88, -0.02 20.25, -0.68 0.22" stroke="#000000" stroke-width="1" fill="none"></path></g><g transform="translate(686.9069915380842 18.736683202957465) rotate(0 50 26)"><text x="50" y="19" font-family="Virgil, Segoe UI Emoji" font-size="20px" fill="#000000" text-anchor="middle" style="white-space: pre;" direction="ltr">strings in </text><text x="50" y="45" font-family="Virgil, Segoe UI Emoji" font-size="20px" fill="#000000" text-anchor="middle" style="white-space: pre;" direction="ltr">kernel</text></g><g stroke-linecap="round" transform="translate(659.5581747511044 219.70123662247897) rotate(0 73.05166029881428 31.798958012425146)"><path d="M0.87 0.26 C39.73 1.72, 82.87 1.76, 147.8 -1.99 M0.26 0.6 C54.69 1.3, 111.11 0.3, 145.12 0.02 M147.36 -1.48 C143.56 16.57, 146.9 34.55, 147.54 65.51 M146.92 0.99 C146.08 22.93, 146.92 45.08, 147.06 63.39 M145.46 62.35 C88.27 63.73, 29.84 63, -1.26 64.45 M145.37 64.34 C99.28 63.84, 53.15 63.19, -0.75 63.69 M0.45 64.46 C-0.22 45.39, -1.49 22.75, -1.18 0.18 M-0.75 63.21 C0.01 48.93, 0.84 33.06, -0.28 0.09" stroke="#000000" stroke-width="1" fill="none"></path></g><g transform="translate(682.6098350499187 225.0001946349039) rotate(0 50 26)"><text x="50" y="19" font-family="Virgil, Segoe UI Emoji" font-size="20px" fill="#000000" text-anchor="middle" style="white-space: pre;" direction="ltr">strings in </text><text x="50" y="45" font-family="Virgil, Segoe UI Emoji" font-size="20px" fill="#000000" text-anchor="middle" style="white-space: pre;" direction="ltr">source</text></g><g stroke-linecap="round"><g transform="translate(620.8498536691682 251.41198702167276) rotate(0 17.536007435470594 -0.9436411700348799)"><path d="M1.81 -1.56 C12.92 -1.76, 25 0.57, 33.13 -0.91 M0.92 -0.52 C8 -0.41, 15.2 0.01, 34.16 -0.82" stroke="#000000" stroke-width="1" fill="none"></path></g><g transform="translate(620.8498536691682 251.41198702167276) rotate(0 17.536007435470594 -0.9436411700348799)"><path d="M19.73 4.24 C24.28 2.26, 29.73 2.32, 33.05 -0.53 M18.96 5.13 C22.06 3.93, 25.24 3.12, 33.94 -0.45" stroke="#000000" stroke-width="1" fill="none"></path></g><g transform="translate(620.8498536691682 251.41198702167276) rotate(0 17.536007435470594 -0.9436411700348799)"><path d="M19.35 -7.53 C24.16 -5.24, 29.74 -0.89, 33.05 -0.53 M18.59 -6.64 C21.71 -5.22, 24.97 -3.43, 33.94 -0.45" stroke="#000000" stroke-width="1" fill="none"></path></g></g><mask></mask><g stroke-linecap="round"><g transform="translate(606.2734342978515 48.67440839349001) rotate(0 25.03472967045178 1.5690549651003494)"><path d="M-1.41 0.51 C10.01 -1.55, 21.76 -0.19, 51.48 3.59 M-0.91 0.93 C12.82 0.76, 26.37 0.43, 51.4 0.94" stroke="#000000" stroke-width="1" fill="none"></path></g><g transform="translate(606.2734342978515 48.67440839349001) rotate(0 25.03472967045178 1.5690549651003494)"><path d="M25.64 9.96 C31.02 5.7, 36.83 4.82, 51.32 2.8 M26.14 10.37 C32.65 7.54, 38.99 4.5, 51.24 0.16" stroke="#000000" stroke-width="1" fill="none"></path></g><g transform="translate(606.2734342978515 48.67440839349001) rotate(0 25.03472967045178 1.5690549651003494)"><path d="M25.87 -7.69 C31.37 -8.1, 37.14 -5.12, 51.32 2.8 M26.37 -7.28 C32.86 -5.44, 39.14 -3.81, 51.24 0.16" stroke="#000000" stroke-width="1" fill="none"></path></g></g><mask></mask><g stroke-linecap="round" transform="translate(665.0585350559561 107.97516793017485) rotate(0 70.04365075709848 40.82298663757251)"><path d="M70.61 -0.71 C96.93 15.09, 120.95 27.2, 140.02 42.17 M71.44 -0.35 C97.29 16.22, 124.66 31.81, 140.49 41.93 M140.52 41.09 C119.77 51.53, 100.65 62.49, 69.54 81.79 M140.34 40.1 C125.37 48.57, 109.57 58.45, 70.53 81.38 M71.13 80.12 C46.62 66.25, 20.31 54.19, 1.83 39.96 M70.12 82.64 C48.88 68.63, 27.59 57, 0.13 41.8 M0.11 41.2 C24.12 29.11, 46.04 17.41, 71.72 -0.96 M-0.67 41.81 C15.32 32.59, 29.89 23.96, 70.34 -0.06" stroke="#000000" stroke-width="1" fill="none"></path></g><g transform="translate(695.6021858130546 135.79815456774713) rotate(0 39.5 13)"><text x="39.5" y="19" font-family="Virgil, Segoe UI Emoji" font-size="20px" fill="#000000" text-anchor="middle" style="white-space: pre;" direction="ltr">compare</text></g><g stroke-linecap="round"><g transform="translate(732.953607568972 215.40408013431352) rotate(0 -1.0555973927682771 -9.127971621667484)"><path d="M-1.72 -0.87 C-0.49 -6.74, -1.9 -11.86, -2.6 -17.75 M0.49 0.53 C0.4 -4.69, -0.11 -9.21, -1.49 -18.79" stroke="#000000" stroke-width="1" fill="none"></path></g><g transform="translate(732.953607568972 215.40408013431352) rotate(0 -1.0555973927682771 -9.127971621667484)"><path d="M1.87 -11.23 C1.12 -13.78, -0.96 -15.97, -2.36 -18.64 M2.98 -10.53 C2.06 -12.94, 0.93 -14.96, -1.8 -19.16" stroke="#000000" stroke-width="1" fill="none"></path></g><g transform="translate(732.953607568972 215.40408013431352) rotate(0 -1.0555973927682771 -9.127971621667484)"><path d="M-4.26 -10.39 C-2.8 -13.27, -2.66 -15.76, -2.36 -18.64 M-3.15 -9.69 C-2.65 -12.24, -2.37 -14.46, -1.8 -19.16" stroke="#000000" stroke-width="1" fill="none"></path></g></g><mask></mask><g stroke-linecap="round"><g transform="translate(734.6724701642381 78.75450381064911) rotate(0 0.5305680026552864 11.865706855175631)"><path d="M0.55 -1.98 C-0.93 7, 0.36 17.37, 0.35 25.72 M0.84 -0.19 C-0.04 6.38, 1.18 13.11, 1.22 24.75" stroke="#000000" stroke-width="1" fill="none"></path></g><g transform="translate(734.6724701642381 78.75450381064911) rotate(0 0.5305680026552864 11.865706855175631)"><path d="M-2.89 12.36 C-2.39 16.61, -0.21 21.67, 0.91 25.74 M-2.72 13.45 C-2.17 16.48, -0.37 19.64, 1.44 25.16" stroke="#000000" stroke-width="1" fill="none"></path></g><g transform="translate(734.6724701642381 78.75450381064911) rotate(0 0.5305680026552864 11.865706855175631)"><path d="M5.35 12.13 C2.89 16.41, 2.12 21.55, 0.91 25.74 M5.52 13.21 C3.82 16.35, 3.39 19.58, 1.44 25.16" stroke="#000000" stroke-width="1" fill="none"></path></g></g><mask></mask><g stroke-linecap="round"><g transform="translate(812.0212869512179 149.22787021656404) rotate(0 21.662009528971453 -1.3423099624553743)"><path d="M0.08 -0.79 C13.03 -0.8, 24.1 0.25, 42.32 -1.88 M0.73 -0.71 C15.68 -1.65, 32.21 -2.37, 43.24 -2.08" stroke="#000000" stroke-width="1" fill="none"></path></g><g transform="translate(812.0212869512179 149.22787021656404) rotate(0 21.662009528971453 -1.3423099624553743)"><path d="M22.69 4.62 C29.77 3.27, 34.92 3.06, 41.73 -1.38 M23.34 4.71 C29.86 2.15, 37.94 -0.35, 42.65 -1.58" stroke="#000000" stroke-width="1" fill="none"></path></g><g transform="translate(812.0212869512179 149.22787021656404) rotate(0 21.662009528971453 -1.3423099624553743)"><path d="M22.7 -10.39 C29.67 -7.93, 34.82 -4.3, 41.73 -1.38 M23.35 -10.31 C29.78 -7.39, 37.86 -4.43, 42.65 -1.58" stroke="#000000" stroke-width="1" fill="none"></path></g></g><mask></mask><g stroke-linecap="round" transform="translate(860.1494396186722 114.85061831123994) rotate(0 83.79455151922821 31.5)"><path d="M-0.37 -1.14 C58.65 0.69, 115.85 1.73, 166.75 -0.67 M-0.52 -0.86 C41.37 0.42, 83.46 1.26, 167.54 -0.91 M169.09 -0.06 C168.37 13.99, 166.23 30.12, 166.92 62.29 M168.17 0.11 C167.94 19.81, 167.49 41.45, 166.82 63.64 M165.93 63.19 C106.07 62.89, 46.49 64.84, -1.27 63.44 M167.71 63.68 C123.72 62.15, 77.87 62.78, -0.66 63.63 M0.85 64.73 C-1.52 47.2, -0.12 30.41, 0.93 0.36 M-0.46 62.3 C1.06 41.22, 1.36 20.92, -0.06 -0.68" stroke="#000000" stroke-width="1" fill="none"></path></g><g transform="translate(896.4439911379004 119.85061831123994) rotate(0 47.5 26)"><text x="47.5" y="19" font-family="Virgil, Segoe UI Emoji" font-size="20px" fill="#000000" text-anchor="middle" style="white-space: pre;" direction="ltr">indicator </text><text x="47.5" y="45" font-family="Virgil, Segoe UI Emoji" font-size="20px" fill="#000000" text-anchor="middle" style="white-space: pre;" direction="ltr">strings</text></g></svg>