<svg version="1.1" xmlns="http://www.w3.org/2000/svg" viewBox="0 0 323.3792480644876 394.4464490653695" width="323.3792480644876" height="394.4464490653695" filter="invert(93%) hue-rotate(180deg)">
  <!-- svg-source:excalidraw -->
  
  <defs>
    <style class="style-fonts">
      @font-face {
        font-family: "Virgil";
        src: url("https://excalidraw.com/Virgil.woff2");
      }
      @font-face {
        font-family: "Cascadia";
        src: url("https://excalidraw.com/Cascadia.woff2");
      }
    </style>
  </defs>
  <rect x="0" y="0" width="323.3792480644876" height="394.4464490653695" fill="#ffffff"></rect><g stroke-linecap="round" transform="translate(76.20474702810714 319.4464490653695) rotate(0 92.5 32.5)"><path d="M-1.12 1.84 C72.67 -1.17, 144.61 0.23, 183.53 -1.45 M0.14 -0.54 C70.66 -0.07, 140.27 0.3, 185.26 -0.2 M183.59 -1.27 C184.28 22.65, 184.46 46.8, 183.95 66.19 M185.26 -0.75 C185.14 21.41, 186.2 43.72, 184.53 64.69 M185.27 63.14 C125.94 63.34, 66.75 64.22, -1.96 65.17 M184.94 65.15 C132.35 63.84, 80.27 63.77, -0.48 64.89 M-1.61 66.91 C0.94 47.84, 1.19 33.86, -1.23 0.14 M-0.4 64.15 C0.17 49.92, 1.3 35.68, -0.5 -0.89" stroke="#000000" stroke-width="1" fill="none"></path></g><g transform="translate(140.20474702810714 338.9464490653695) rotate(0 28.5 13)"><text x="28.5" y="19" font-family="Virgil, Segoe UI Emoji" font-size="20px" fill="#000000" text-anchor="middle" style="white-space: pre;" direction="ltr">string</text></g><g stroke-linecap="round" transform="translate(13.437725190532547 144.9307137283986) rotate(0 66.17620991774942 35.236683202957465)"><path d="M17.62 0 M17.62 0 C39.57 -0.72, 62.16 -1.9, 114.73 0 M17.62 0 C39.45 0.19, 60.53 -0.7, 114.73 0 M114.73 0 C126.1 1.05, 132.44 5.28, 132.35 17.62 M114.73 0 C126.97 0.9, 131.34 7.19, 132.35 17.62 M132.35 17.62 C130.32 29.55, 130.54 40.25, 132.35 52.86 M132.35 17.62 C133.4 31.17, 131.94 44.06, 132.35 52.86 M132.35 52.86 C131.74 63.18, 124.6 72.05, 114.73 70.47 M132.35 52.86 C133.77 65.11, 125.76 72.14, 114.73 70.47 M114.73 70.47 C88.7 69.25, 60.42 69.77, 17.62 70.47 M114.73 70.47 C81.8 71.23, 46.75 71.3, 17.62 70.47 M17.62 70.47 C7.46 72.26, 0.31 64.04, 0 52.86 M17.62 70.47 C6.71 69.52, -0.18 62.71, 0 52.86 M0 52.86 C-1.24 43.94, 0.42 35.16, 0 17.62 M0 52.86 C-0.03 43.06, 0.56 33.55, 0 17.62 M0 17.62 C-1.46 7.03, 4.04 1.02, 17.62 0 M0 17.62 C-0.37 7.53, 4.27 1.99, 17.62 0" stroke="#000000" stroke-width="1" fill="none"></path></g><g transform="translate(42.113935108281964 166.91739693135605) rotate(0 37.5 13)"><text x="37.5" y="19" font-family="Virgil, Segoe UI Emoji" font-size="20px" fill="#000000" text-anchor="middle" style="white-space: pre;" direction="ltr">Config 1</text></g><g stroke-linecap="round" transform="translate(181.0268282289888 141.49298853786559) rotate(0 66.17620991774942 35.236683202957465)"><path d="M17.62 0 M17.62 0 C43.87 1.08, 70.71 -1.37, 114.73 0 M17.62 0 C52.2 0.23, 86.42 0.37, 114.73 0 M114.73 0 C128.45 0.17, 134.25 5.17, 132.35 17.62 M114.73 0 C125.72 1.41, 134.39 7, 132.35 17.62 M132.35 17.62 C133.09 24.91, 131.1 35.76, 132.35 52.86 M132.35 17.62 C132.4 26.84, 132.19 36.7, 132.35 52.86 M132.35 52.86 C133.77 63.28, 126.62 68.9, 114.73 70.47 M132.35 52.86 C134.42 62.61, 127.45 72.45, 114.73 70.47 M114.73 70.47 C92.91 70, 71.43 69.6, 17.62 70.47 M114.73 70.47 C87.33 70.32, 57.94 69.58, 17.62 70.47 M17.62 70.47 C5.23 69.91, 1.33 65.49, 0 52.86 M17.62 70.47 C7.47 69.49, 1.35 65.74, 0 52.86 M0 52.86 C-0.63 41.95, 0.24 34.65, 0 17.62 M0 52.86 C0.01 38.18, -0.57 25.17, 0 17.62 M0 17.62 C-0.4 3.9, 6.63 0.49, 17.62 0 M0 17.62 C1.13 6.78, 5.02 2.13, 17.62 0" stroke="#000000" stroke-width="1" fill="none"></path></g><g transform="translate(205.2030381467382 163.47967174082305) rotate(0 42 13)"><text x="42" y="19" font-family="Virgil, Segoe UI Emoji" font-size="20px" fill="#000000" text-anchor="middle" style="white-space: pre;" direction="ltr">Config 2</text></g><g stroke-linecap="round"><g transform="translate(104.02005410833104 312.51981676685455) rotate(0 -8.958572164137223 -44.469803728859915)"><path d="M-1.02 0.62 C-3.93 -14.09, -14.97 -72.93, -17.62 -87.81 M0.65 -0.1 C-2.41 -15.19, -15.57 -75.01, -18.56 -89.56" stroke="#000000" stroke-width="1" fill="none"></path></g><g transform="translate(104.02005410833104 312.51981676685455) rotate(0 -8.958572164137223 -44.469803728859915)"><path d="M-1.61 -64.12 C-6.11 -70.41, -12.08 -76.94, -17.58 -91.49 M-1.94 -64.3 C-9.04 -73.45, -15.41 -82.71, -19.09 -89.66" stroke="#000000" stroke-width="1" fill="none"></path></g><g transform="translate(104.02005410833104 312.51981676685455) rotate(0 -8.958572164137223 -44.469803728859915)"><path d="M-21.67 -59.83 C-20.43 -67.18, -20.63 -74.94, -17.58 -91.49 M-22.01 -60.01 C-21.34 -70.93, -19.97 -81.84, -19.09 -89.66" stroke="#000000" stroke-width="1" fill="none"></path></g></g><mask></mask><g stroke-linecap="round"><g transform="translate(221.8730083338341 313.37924806448746) rotate(0 7.974210925853328 -46.0505271994366)"><path d="M0.1 0.3 C2.9 -14.65, 14.16 -75.39, 17.25 -90.86 M-1.3 -0.59 C1.26 -15.75, 12.82 -77.25, 16.11 -92.4" stroke="#000000" stroke-width="1" fill="none"></path></g><g transform="translate(221.8730083338341 313.37924806448746) rotate(0 7.974210925853328 -46.0505271994366)"><path d="M21.15 -63.35 C21.22 -71.11, 16.9 -83.33, 16.12 -92.39 M20.02 -63.65 C19.25 -69.77, 18.37 -77.26, 16.94 -92.89" stroke="#000000" stroke-width="1" fill="none"></path></g><g transform="translate(221.8730083338341 313.37924806448746) rotate(0 7.974210925853328 -46.0505271994366)"><path d="M1.03 -67.37 C7.91 -73.78, 10.44 -84.63, 16.12 -92.39 M-0.11 -67.68 C4.23 -72.66, 8.47 -79.13, 16.94 -92.89" stroke="#000000" stroke-width="1" fill="none"></path></g></g><mask></mask><g stroke-linecap="round" transform="translate(10 10) rotate(0 66.17620991774942 35.236683202957465)"><path d="M17.62 0 M17.62 0 C57.71 -0.24, 95.09 -0.78, 114.73 0 M17.62 0 C48.41 -0.13, 77.03 0.66, 114.73 0 M114.73 0 C125.64 1.6, 130.4 6.64, 132.35 17.62 M114.73 0 C125.1 -1.82, 130.33 7.8, 132.35 17.62 M132.35 17.62 C132.17 26.54, 132.08 37.96, 132.35 52.86 M132.35 17.62 C133.3 28.26, 132.19 37.21, 132.35 52.86 M132.35 52.86 C132.08 65.95, 127.14 70.33, 114.73 70.47 M132.35 52.86 C133.22 66.22, 126.47 70.99, 114.73 70.47 M114.73 70.47 C88.53 71.03, 58.37 70.55, 17.62 70.47 M114.73 70.47 C78.18 70.61, 41.83 71.57, 17.62 70.47 M17.62 70.47 C4.23 72.44, 0.67 66.34, 0 52.86 M17.62 70.47 C7.29 72.17, 1.6 64.29, 0 52.86 M0 52.86 C-0.87 42.97, 1.97 28.79, 0 17.62 M0 52.86 C-0.5 43.81, 0.56 34.1, 0 17.62 M0 17.62 C-0.1 7.78, 6.97 -0.61, 17.62 0 M0 17.62 C-0.56 7.08, 3.6 0.42, 17.62 0" stroke="#000000" stroke-width="1" fill="none"></path></g><g transform="translate(34.67620991774942 38.736683202957465) rotate(0 41.5 13)"><text x="41.5" y="19" font-family="Virgil, Segoe UI Emoji" font-size="20px" fill="#000000" text-anchor="middle" style="white-space: pre;" direction="ltr">Config 3</text></g><g stroke-linecap="round"><g transform="translate(82.1922290011812 133.75810685916758) rotate(0 -0.3783787464567041 -22.49486148730375)"><path d="M-1.13 0.09 C-1.35 -7.62, -0.65 -37.47, -0.78 -45.08 M0.48 -0.91 C0.14 -7.95, -0.69 -36.44, -1.24 -43.75" stroke="#000000" stroke-width="1" fill="none"></path></g><g transform="translate(82.1922290011812 133.75810685916758) rotate(0 -0.3783787464567041 -22.49486148730375)"><path d="M7.59 -21.57 C3.58 -30.72, -0.27 -36.26, -0.21 -44.71 M7.2 -22.27 C4.95 -29.47, 1.51 -37.53, -1.28 -44.21" stroke="#000000" stroke-width="1" fill="none"></path></g><g transform="translate(82.1922290011812 133.75810685916758) rotate(0 -0.3783787464567041 -22.49486148730375)"><path d="M-7.69 -20.82 C-6.42 -30.08, -5 -35.89, -0.21 -44.71 M-8.08 -21.52 C-5.21 -29.06, -3.53 -37.37, -1.28 -44.21" stroke="#000000" stroke-width="1" fill="none"></path></g></g><mask></mask></svg>